<svg width="31" height="27" viewBox="0 0 31 27" fill="none" xmlns="http://www.w3.org/2000/svg">
<path d="M6.66071 26.5C6.0464 26.5 5.50034 26.3118 5.02255 25.9355C4.54475 25.5592 4.21484 25.0746 4.03282 24.4816L0.55171 11.8237C0.437948 11.3904 0.511893 10.9912 0.773545 10.6263C1.0352 10.2614 1.39355 10.0789 1.84859 10.0789H8.33301L14.3396 1.11579C14.4534 0.933333 14.6127 0.785088 14.8174 0.671053C15.0222 0.557018 15.2383 0.5 15.4659 0.5C15.6934 0.5 15.9095 0.557018 16.1143 0.671053C16.3191 0.785088 16.4784 0.933333 16.5921 1.11579L22.5987 10.0789H29.1514C29.6065 10.0789 29.9648 10.2614 30.2265 10.6263C30.4881 10.9912 30.5621 11.3904 30.4483 11.8237L26.9672 24.4816C26.7852 25.0746 26.4553 25.5592 25.9775 25.9355C25.4997 26.3118 24.9536 26.5 24.3393 26.5H6.66071ZM6.62659 23.7632H24.3734L27.3767 12.8158H3.62328L6.62659 23.7632ZM11.6435 10.0789H19.3224L15.4659 4.33158L11.6435 10.0789Z" fill="#2D2C2D"/>
</svg>
