<svg width="31" height="27" viewBox="0 0 31 27" fill="none" xmlns="http://www.w3.org/2000/svg">
<path d="M4.5 1.5C3.39544 1.5 2.5 2.39544 2.5 3.5C2.5 4.60456 3.39544 5.5 4.5 5.5H16.5C17.6045 5.5 18.5 4.60456 18.5 3.5C18.5 2.39544 17.6045 1.5 16.5 1.5H4.5Z" fill="#2D2C2D" stroke="#2D2C2D" stroke-width="0.32"/>
<path d="M2.5 13.5C2.5 12.3955 3.37305 11.5 4.45 11.5H26.55C27.6269 11.5 28.5 12.3955 28.5 13.5C28.5 14.6045 27.6269 15.5 26.55 15.5H4.45C3.37305 15.5 2.5 14.6045 2.5 13.5Z" fill="#2D2C2D" stroke="#2D2C2D" stroke-width="0.32"/>
<path d="M4.9375 21.5C3.59132 21.5 2.5 22.3955 2.5 23.5C2.5 24.6045 3.59132 25.5 4.9375 25.5H26.0625C27.4087 25.5 28.5 24.6045 28.5 23.5C28.5 22.3955 27.4087 21.5 26.0625 21.5H4.9375Z" fill="#2D2C2D" stroke="#2D2C2D" stroke-width="0.32"/>
</svg>
