<svg width="30" height="26" viewBox="0 0 30 26" fill="none" xmlns="http://www.w3.org/2000/svg">
<path d="M23.279 23.8068C24.4947 25.0181 26.0443 25.4166 26.7401 24.697C27.4359 23.9774 27.0144 22.412 25.7987 21.2008L6.72104 2.1932C5.50535 0.981974 3.95568 0.583417 3.25989 1.30303C2.5641 2.02264 2.98559 3.58801 4.20128 4.79923L23.279 23.8068Z" fill="#2D2C2D" stroke="#2D2C2D" stroke-width="0.32"/>
<path d="M3.25988 24.6969C2.56409 23.9773 2.78844 22.6084 3.76102 21.6394L23.7192 1.75451C24.6918 0.785534 26.0443 0.58337 26.7401 1.30298C27.4359 2.0226 27.2115 3.39157 26.239 4.36055L6.28078 24.2454C5.3082 25.2144 3.95567 25.4165 3.25988 24.6969Z" fill="#2D2C2D" stroke="#2D2C2D" stroke-width="0.32"/>
</svg>
