<svg width="31" height="27" viewBox="0 0 31 27" fill="none" xmlns="http://www.w3.org/2000/svg">
<path d="M15.5 25.4275L13.615 23.7375C11.4267 21.7658 9.6175 20.065 8.1875 18.635C6.7575 17.205 5.62 15.9213 4.775 14.7838C3.93 13.6463 3.33958 12.6008 3.00375 11.6475C2.66792 10.6942 2.5 9.71917 2.5 8.7225C2.5 6.68584 3.1825 4.985 4.5475 3.62C5.9125 2.255 7.61333 1.5725 9.65 1.5725C10.7767 1.5725 11.8492 1.81084 12.8675 2.2875C13.8858 2.76417 14.7633 3.43584 15.5 4.3025C16.2367 3.43584 17.1142 2.76417 18.1325 2.2875C19.1508 1.81084 20.2233 1.5725 21.35 1.5725C23.3867 1.5725 25.0875 2.255 26.4525 3.62C27.8175 4.985 28.5 6.68584 28.5 8.7225C28.5 9.71917 28.3321 10.6942 27.9962 11.6475C27.6604 12.6008 27.07 13.6463 26.225 14.7838C25.38 15.9213 24.2425 17.205 22.8125 18.635C21.3825 20.065 19.5733 21.7658 17.385 23.7375L15.5 25.4275ZM15.5 21.9175C17.58 20.0542 19.2917 18.4563 20.635 17.1238C21.9783 15.7913 23.04 14.6321 23.82 13.6463C24.6 12.6604 25.1417 11.7829 25.445 11.0138C25.7483 10.2446 25.9 9.48084 25.9 8.7225C25.9 7.4225 25.4667 6.33917 24.6 5.4725C23.7333 4.60584 22.65 4.1725 21.35 4.1725C20.3317 4.1725 19.3892 4.45959 18.5225 5.03375C17.6558 5.60792 17.06 6.33917 16.735 7.2275H14.265C13.94 6.33917 13.3442 5.60792 12.4775 5.03375C11.6108 4.45959 10.6683 4.1725 9.65 4.1725C8.35 4.1725 7.26667 4.60584 6.4 5.4725C5.53333 6.33917 5.1 7.4225 5.1 8.7225C5.1 9.48084 5.25167 10.2446 5.555 11.0138C5.85833 11.7829 6.4 12.6604 7.18 13.6463C7.96 14.6321 9.02167 15.7913 10.365 17.1238C11.7083 18.4563 13.42 20.0542 15.5 21.9175Z" fill="#2D2C2D"/>
</svg>
