<svg width="118" height="31" viewBox="0 0 118 31" fill="none" xmlns="http://www.w3.org/2000/svg">
<path d="M10.9731 19.3801C11.0279 19.2133 11.0591 19.0425 11.0904 18.8717C11.2336 18.0909 11.1092 17.3151 10.7886 16.6821C11.3163 17.3754 12.0678 17.9053 12.9438 18.1544L13.0332 18.1948C13.1757 18.3446 13.3515 18.5757 13.5508 18.8108L14.7921 23.5496C14.8132 23.83 14.7729 24.0496 14.7652 24.2244C14.7652 24.2244 14.783 24.1268 14.8569 23.9883L14.9063 24.2483L15.8854 21.9488C16.1587 21.5171 16.4316 21.0854 16.6736 20.8245C17.1005 21.8026 17.8544 22.5845 18.8399 23.0283C18.7707 23.1423 18.7159 23.3091 18.651 23.3987C16.5338 25.5556 15.7123 30.6995 15.7123 30.6995L11.4319 29.9739C11.4319 29.9739 12.6611 24.723 11.9327 23.1404L11.9374 23.116C11.8117 22.2142 11.5784 21.3696 11.1627 20.5947C11.1079 20.2332 11.0427 19.7944 10.9731 19.3801Z" fill="#7CB342" fill-opacity="0.76"/>
<path d="M28.3657 16.0389C29.2187 15.3533 29.9421 14.3187 30.1656 13.0987C30.613 10.6587 29.0231 8.35142 26.6713 7.95274C26.0831 7.85306 25.4966 7.87937 24.939 8.01125C25.1927 7.55118 25.3853 7.03032 25.4838 6.49354C25.9756 3.80954 24.2849 1.25875 21.6746 0.816223C19.9342 0.521183 18.2503 1.24201 17.1586 2.56645C16.5277 1.37772 15.402 0.507634 14.0145 0.272411C11.5921 -0.138231 9.41445 1.55557 8.72306 4.00446C7.23171 4.20445 5.5432 5.47803 5.20779 7.30801C5.09152 7.94241 5.1253 8.5519 5.29007 9.10817C3.14776 9.02173 1.18512 10.601 0.773676 12.8458C0.33091 15.2614 1.89718 17.5647 4.22549 17.9594C4.31953 17.9753 4.46067 17.9992 4.46514 17.9748C4.37385 19.7959 5.43147 21.4343 7.17188 21.7294C8.62995 21.9765 10.0554 21.2118 10.7337 19.8928C10.812 19.73 10.8903 19.5672 10.9495 19.376C10.9539 19.3516 10.9495 19.376 10.9539 19.3516C11.009 19.1848 11.0402 19.014 11.0671 18.8675C11.21 18.0868 11.0856 17.3109 10.765 16.678C11.2927 17.3712 12.0442 17.9012 12.9201 18.1502C13.0566 18.1986 13.1655 18.2673 13.3067 18.2912L13.3178 18.4944C14.4232 18.6818 15.5092 18.3124 16.3915 17.7324C16.3411 17.8748 16.3368 17.8992 16.3099 18.0456C16.1532 18.8996 16.2319 19.7935 16.483 20.5404C16.5314 20.6744 16.5929 20.7352 16.6409 20.8691C16.9673 21.6037 17.7535 22.3408 18.5612 22.8299L18.8032 23.0973C18.8267 23.1013 18.859 23.0565 18.8825 23.0605C18.9958 23.1048 19.1087 23.1491 19.222 23.1935C19.2455 23.1975 19.2455 23.1975 19.269 23.2015C19.4761 23.2617 19.707 23.326 19.9419 23.3659C21.3062 23.5971 22.6218 23.1661 23.6238 22.3296C23.6238 22.3296 23.6238 22.3296 23.6473 22.3336C24.1639 22.8236 24.8247 23.1872 25.5773 23.3148C27.6467 23.6657 29.6812 22.2243 30.0748 20.0772C30.4022 18.4219 29.6738 16.8393 28.3657 16.0389Z" fill="#195530"/>
<path d="M7.14603 22.0018C5.42932 21.7108 4.2362 20.15 4.24683 18.2398C4.2233 18.2358 4.1998 18.2319 4.1998 18.2319C1.73036 17.8132 0.111454 15.4004 0.581042 12.8384C0.988011 10.618 2.86552 8.97397 5.03468 8.91401C4.93597 8.39414 4.9403 7.84137 5.03868 7.3046C5.39197 5.37702 7.10838 4.08303 8.60881 3.83423C9.40204 1.22652 11.7031 -0.345772 14.1255 0.0648734C15.4189 0.284149 16.5623 1.05665 17.2537 2.18014C18.4305 0.920434 20.1154 0.325605 21.7617 0.604684C24.49 1.06717 26.2801 3.73548 25.7615 6.56588C25.6899 6.95625 25.5669 7.36307 25.4059 7.71314C25.8516 7.6629 26.3117 7.66545 26.7584 7.7412C29.2514 8.16381 30.8893 10.6051 30.4197 13.167C30.2187 14.265 29.6456 15.2748 28.7744 16.058C30.0133 16.9724 30.6197 18.5595 30.3246 20.1699C29.9085 22.4391 27.7577 23.9865 25.5235 23.6077C24.818 23.4881 24.1717 23.1773 23.6275 22.7076C22.5502 23.5565 21.2011 23.9064 19.9073 23.6871C19.5312 23.6234 19.1639 23.5108 18.8056 23.3494C18.782 23.3454 18.7585 23.3414 18.7158 23.309C17.7112 22.8368 16.9146 22.0226 16.4497 20.9877L16.4114 20.9309C16.359 20.8214 16.3254 20.7402 16.277 20.6063C15.9879 19.8025 15.9193 18.9858 16.0477 18.1522C15.3469 18.5366 14.3315 18.9179 13.2496 18.7345C13.1319 18.7146 13.0422 18.6742 12.9484 18.6583C12.9013 18.6503 12.8587 18.6179 12.8116 18.6099C12.3031 18.4734 11.8026 18.1621 11.3243 17.7289C11.3939 18.1432 11.3693 18.5415 11.2934 18.9563C11.2618 19.1271 11.2026 19.3183 11.1478 19.4851C11.0883 19.6764 11.0057 19.8636 10.8994 20.0468C10.2033 21.4634 8.67469 22.261 7.14603 22.0018ZM4.71934 18.0432C4.63699 19.8154 5.65986 21.2467 7.23544 21.5138C8.5762 21.7411 9.88941 21.058 10.5542 19.8122C10.6326 19.6494 10.7109 19.4866 10.766 19.3198C10.8161 19.1774 10.8477 19.0066 10.8742 18.8602C11.004 18.1526 10.9132 17.4579 10.5926 16.8249C10.5401 16.7154 10.5667 16.569 10.6742 16.5117C10.7862 16.4301 10.9273 16.454 10.9801 16.5636C11.6265 17.4027 12.3031 17.9451 12.9951 18.1379C13.0422 18.1459 13.1084 18.1822 13.1554 18.1902C13.2449 18.2306 13.3154 18.2425 13.386 18.2545C14.6088 18.4618 15.7398 17.8484 16.3186 17.4686C16.4027 17.4073 16.5203 17.4273 16.5862 17.4636C16.6716 17.5284 16.7005 17.6339 16.6827 17.7315C16.6648 17.8291 16.6423 17.9512 16.6201 18.0731L16.6111 18.1219C16.4682 18.9027 16.522 19.6666 16.7966 20.4176C16.8258 20.5232 16.8594 20.6043 16.9166 20.6895L16.9546 20.7463C17.367 21.6715 18.1017 22.425 18.9978 22.8285L19.0213 22.8325L19.0449 22.8365C19.3561 22.9899 19.7047 23.0741 20.0573 23.1339C21.2804 23.3412 22.559 22.9794 23.5377 22.139C23.6261 22.0533 23.7717 22.0528 23.8523 22.142C24.3451 22.6281 24.9679 22.9349 25.6499 23.0505C27.6256 23.3854 29.5243 22.0217 29.891 20.021C30.1727 18.4838 29.5485 16.9943 28.283 16.2262C28.1933 16.1859 28.164 16.0803 28.1822 15.9827C28.1909 15.9339 28.2279 15.8647 28.284 15.8239C29.1929 15.0975 29.813 14.0956 30.01 13.0221C30.4301 10.7285 28.9637 8.54273 26.7295 8.16397C26.1887 8.07227 25.6018 8.09858 25.0956 8.21404C24.9928 8.2469 24.903 8.20656 24.8459 8.12138C24.7888 8.03623 24.783 7.93463 24.8244 7.84104C25.0741 7.40533 25.2385 6.90492 25.3326 6.3925C25.8022 3.83056 24.1831 1.4177 21.7136 0.999064C20.1144 0.727961 18.4718 1.35518 17.4319 2.66321C17.3714 2.72844 17.292 2.76527 17.2214 2.75329C17.1509 2.74135 17.0846 2.70498 17.0275 2.61983C16.4158 1.4595 15.3237 0.670544 14.0539 0.455269C11.8429 0.080507 9.72471 1.5831 9.03769 4.00761C9.01988 4.1052 8.93148 4.19081 8.83299 4.19929C7.46332 4.3948 5.83998 5.57876 5.52692 7.28672C5.42407 7.84793 5.43879 8.42905 5.60359 8.98529C5.61371 9.0625 5.60026 9.1357 5.56333 9.2049C5.52642 9.2741 5.4469 9.31096 5.35285 9.29501C3.30459 9.22452 1.47743 10.7261 1.09281 12.8245C0.672434 15.1181 2.11992 17.2755 4.33065 17.6502C4.37767 17.6582 4.49528 17.6782 4.51878 17.6821C4.60391 17.7469 4.74619 17.8968 4.71934 18.0432Z" fill="#2D2C2D"/>
<path d="M7.47843 10.1335C7.4549 10.1295 7.40784 10.1215 7.38902 10.0931C6.9161 9.7614 6.37418 9.54374 5.78622 9.44406C5.59809 9.41216 5.45696 9.38823 5.28786 9.38472C5.16581 9.38919 5.06612 9.27168 5.06942 9.12126C5.06827 8.99531 5.1847 8.88924 5.33028 8.88875C5.49938 8.89226 5.68753 8.92416 5.87566 8.95606C6.53417 9.06769 7.11878 9.31774 7.65757 9.68581C7.76614 9.75454 7.78631 9.90893 7.71707 10.0229C7.6522 10.1126 7.57254 10.1494 7.47843 10.1335Z" fill="#2D2C2D"/>
<path d="M4.43504 18.2717C4.31743 18.2517 4.21774 18.1342 4.24009 18.0122C4.26695 17.8658 4.37891 17.7842 4.50095 17.7797C5.26249 17.8585 6.01724 17.7097 6.7092 17.3741C6.81663 17.3169 6.97695 17.3692 7.02939 17.4788C7.08216 17.5883 7.02737 17.7551 6.91981 17.8124C6.14839 18.1848 5.29509 18.342 4.43504 18.2717Z" fill="#2D2C2D"/>
<path d="M16.3926 17.8585C16.2561 17.8102 16.1798 17.6966 16.2067 17.5502C16.5065 16.4438 17.1972 15.4539 18.1209 14.7803C18.2328 14.6986 18.374 14.7226 18.4499 14.8361C18.5262 14.9497 18.4994 15.0961 18.3874 15.1777C17.5478 15.7901 16.9502 16.6699 16.6682 17.6788C16.6457 17.8007 16.5102 17.8784 16.3926 17.8585Z" fill="#2D2C2D"/>
<path d="M10.7394 16.9504C10.6923 16.9424 10.6261 16.906 10.5881 16.8493L10.569 16.8209C10.5502 16.7925 10.5075 16.7601 10.493 16.7073C9.76029 15.6774 9.48535 14.3981 9.71794 13.1294C9.80735 12.6414 9.96297 12.1897 10.1845 11.7744C10.254 11.6604 10.3851 11.6071 10.5216 11.6555C10.6302 11.7242 10.6786 11.8582 10.6281 12.0006C10.4389 12.371 10.288 12.7983 10.212 13.2131C10.0016 14.3598 10.2517 15.5092 10.9085 16.4255C10.9273 16.4539 10.9464 16.4823 10.9656 16.5107L10.9844 16.5391C11.0607 16.6526 11.0338 16.799 10.9219 16.8807C10.8614 16.9459 10.81 16.9623 10.7394 16.9504Z" fill="#2D2C2D"/>
<path d="M11.5949 5.27106C11.5478 5.26308 11.5054 5.23071 11.4863 5.20232C10.766 4.5016 9.78588 4.15934 8.77249 4.26428C8.65048 4.26875 8.52275 4.17162 8.52174 4.04566C8.5204 3.91968 8.61787 3.78522 8.73988 3.78075C9.87562 3.67134 10.9922 4.06191 11.8167 4.85576C11.9205 4.94892 11.9175 5.0993 11.8244 5.20934C11.7404 5.27056 11.6654 5.283 11.5949 5.27106Z" fill="#2D2C2D"/>
<path d="M23.5939 22.6263C23.5468 22.6183 23.5041 22.586 23.4849 22.5576C23.1344 22.2214 22.8443 21.82 22.6292 21.4062C22.5764 21.2966 22.6312 21.1298 22.7388 21.0726C22.8463 21.0153 23.0063 21.0676 23.0591 21.1772C23.255 21.5626 23.5071 21.9073 23.7918 22.207C23.896 22.3002 23.8927 22.4506 23.7999 22.5606C23.7673 22.6054 23.6876 22.6423 23.5939 22.6263Z" fill="#2D2C2D"/>
<path d="M28.2269 16.2672C28.2034 16.2632 28.1798 16.2592 28.1607 16.2308C27.7879 16.0167 27.4014 15.8757 26.9782 15.8039C26.837 15.78 26.7607 15.6664 26.7876 15.5201C26.8145 15.3737 26.9264 15.292 27.0676 15.3159C27.5378 15.3957 27.9903 15.573 28.406 15.8195C28.5146 15.8883 28.5583 16.0466 28.4887 16.1607C28.4003 16.2463 28.321 16.2831 28.2269 16.2672Z" fill="#2D2C2D"/>
<path d="M17.606 4.22736C17.5119 4.2114 17.4268 4.14664 17.4211 4.04508C17.3371 3.57796 17.1778 3.12329 16.9627 2.70945C16.9099 2.59991 16.9415 2.42911 17.0487 2.37186C17.1563 2.31461 17.321 2.34251 17.3737 2.45208C17.6268 2.92267 17.7814 3.40174 17.8803 3.92164C17.9048 4.0516 17.8077 4.18606 17.6809 4.21491C17.6574 4.21091 17.6295 4.23133 17.606 4.22736Z" fill="#2D2C2D"/>
<path d="M19.8408 10.82C19.7 10.7961 19.6237 10.6825 19.6506 10.5361C19.6775 10.3897 19.7894 10.3081 19.9306 10.332C21.8354 10.6549 23.7848 9.67716 24.7407 7.90205C24.81 7.78801 24.9411 7.73476 25.0732 7.80747C25.1817 7.8762 25.2301 8.01017 25.1562 8.1486C24.0984 10.0826 21.9577 11.1788 19.8408 10.82Z" fill="#2D2C2D"/>
<path d="M12.1579 11.329C12.0873 11.317 12.0211 11.2807 11.9875 11.1995C11.6571 10.4893 11.5559 9.71748 11.7034 8.91228C12.0748 6.88712 13.95 5.51946 15.9022 5.85036C16.3489 5.92611 16.759 6.07106 17.1273 6.30963C17.2359 6.37837 17.2796 6.53672 17.2104 6.65076C17.1408 6.7648 16.9865 6.81408 16.8776 6.74534C16.5519 6.53914 16.1889 6.40213 15.8125 6.33836C14.1194 6.0513 12.496 7.23526 12.174 8.99204C12.0486 9.67522 12.1441 10.3455 12.4173 10.9705C12.4701 11.08 12.4153 11.2468 12.3078 11.3041C12.252 11.3449 12.2049 11.337 12.1579 11.329Z" fill="#2D2C2D"/>
<path d="M15.6821 30.9964L11.402 30.2706C11.2608 30.2467 11.1845 30.1332 11.2114 29.9867C11.7303 27.1564 11.9747 25.1601 11.7179 23.2548C11.7223 23.2304 11.7031 23.202 11.7078 23.1776L11.7122 23.1532C11.5865 22.2514 11.3398 21.48 10.9623 20.7619C10.8336 20.5388 10.7045 20.3157 10.5522 20.0886C10.476 19.9751 10.5028 19.8286 10.6148 19.747C10.7267 19.6654 10.8679 19.6893 10.9442 19.8028C11.1156 20.0583 11.2678 20.2854 11.3922 20.5329C11.7845 21.3038 12.0648 22.1564 12.2049 23.111C12.2006 23.1354 12.2194 23.1638 12.215 23.1882L12.2106 23.2125C12.4674 25.1178 12.251 27.0937 11.7502 29.8265L15.56 30.4725C15.7567 29.3988 16.6202 25.2179 18.5276 23.2771C18.5558 23.2567 18.5881 23.2119 18.616 23.1915C18.6721 23.1507 18.7091 23.0815 18.7649 23.0406C18.8536 22.955 19.0227 22.9585 19.1034 23.0476C19.184 23.1368 19.176 23.3116 19.0876 23.3972C19.0597 23.4176 19.0271 23.4624 18.9713 23.5033C18.9387 23.5481 18.9108 23.5685 18.8782 23.6133C16.8262 25.6806 16.0225 30.727 16.0135 30.7756C16 30.8488 15.9678 30.8938 15.9116 30.9345C15.8044 30.9917 15.7526 31.0083 15.6821 30.9964Z" fill="#2D2C2D"/>
<path d="M14.7113 24.5172C14.594 24.4973 14.5177 24.3837 14.5167 24.2577C14.5255 24.2089 14.511 24.1561 14.5197 24.1073C14.5231 23.9569 14.55 23.8105 14.5389 23.6074C14.4085 22.2016 14.0327 20.1504 13.3269 18.9741C13.1699 18.7715 12.9481 18.6584 12.7736 18.5533C12.6647 18.4845 12.6167 18.3506 12.6624 18.2326C12.7319 18.1186 12.863 18.0653 12.976 18.1096C13.1743 18.2187 13.4811 18.3965 13.7231 18.664C13.7423 18.6923 13.7423 18.6923 13.7611 18.7207C14.4246 19.8646 14.8273 21.7694 14.9809 23.1792C15.1745 22.7843 15.4333 22.2998 15.6871 21.8397C15.9368 21.4041 16.2202 21.0496 16.4988 20.7194C16.5916 20.6094 16.7374 20.6089 16.8413 20.702C16.9455 20.7952 16.9425 20.9456 16.8494 21.0556C16.5795 21.3369 16.3479 21.675 16.1028 22.0863C15.6168 22.8845 15.2031 23.8206 15.0552 24.0974C15.0091 24.2155 15.0004 24.2642 15.0004 24.2642C14.9691 24.435 14.8525 24.5411 14.7113 24.5172C14.7349 24.5211 14.7349 24.5211 14.7113 24.5172Z" fill="#2D2C2D"/>
<path d="M49.4504 8.1466C50.0911 8.02704 50.6177 7.7068 51.0304 7.18556C51.443 6.66432 51.6494 6.06685 51.6494 5.39379C51.6494 4.78557 51.5006 4.25032 51.203 3.78771C50.9033 3.32707 50.4711 2.96676 49.9065 2.70614C49.3418 2.44552 48.6739 2.31521 47.9029 2.31521H43V13.6848H47.6912C48.4622 13.6848 49.1278 13.5597 49.6882 13.3101C50.2463 13.0603 50.6698 12.7127 50.9587 12.2677C51.2454 11.8223 51.3887 11.3174 51.3887 10.7528C51.3887 10.0902 51.2128 9.53636 50.861 9.09135C50.507 8.64601 50.0368 8.33099 49.4504 8.1466ZM45.2804 8.99362H47.3654C47.9084 8.99362 48.3264 9.11513 48.6196 9.35849C48.9128 9.6038 49.0594 9.95466 49.0594 10.4107C49.0594 10.8668 48.9128 11.2196 48.6196 11.4695C48.3264 11.7191 47.9084 11.8442 47.3654 11.8442H45.2804V8.99362ZM47.5772 4.17213C48.131 4.17213 48.5632 4.30244 48.8737 4.56306C49.1822 4.82368 49.3363 5.19279 49.3363 5.6707C49.3363 6.15936 49.1735 6.54248 48.8477 6.82069C48.5219 7.0963 48.0821 7.23442 47.5283 7.23442H45.2804V4.17213H47.5772Z" fill="#007E23"/>
<path d="M58.7105 13.6238L56.2021 9.19327H55.127V13.6238H52.8466V2.25424H57.1142C57.9938 2.25424 58.7431 2.40866 59.3621 2.71684C59.9811 3.02763 60.4458 3.44658 60.7564 3.97434C61.0648 4.50014 61.219 5.08849 61.219 5.74004C61.219 6.48933 61.0018 7.16499 60.5675 7.76637C60.1331 8.37036 59.4869 8.78605 58.6291 9.01409L61.3493 13.6238H58.7105ZM55.127 7.48295H57.0328C57.6518 7.48295 58.1132 7.33309 58.4173 7.03338C58.7214 6.73594 58.8734 6.32123 58.8734 5.78891C58.8734 5.26767 58.7214 4.86273 58.4173 4.57377C58.1132 4.28708 57.6518 4.14374 57.0328 4.14374H55.127V7.48295Z" fill="#007E23"/>
<path d="M67.3265 2.17675C66.3739 2.17675 65.4991 2.42662 64.702 2.92603C63.905 3.42545 63.2732 4.11837 62.8066 5.00448C62.34 5.88831 62.1068 6.88975 62.1068 8.00814C62.1068 9.11578 62.34 10.1127 62.8066 10.9988C63.2732 11.8826 63.905 12.5745 64.702 13.074C65.4991 13.5734 66.3739 13.8232 67.3265 13.8232C68.2887 13.8232 69.1665 13.5734 69.9596 13.074C70.7509 12.5745 71.3777 11.8826 71.8406 10.9988C72.3013 10.1127 72.5316 9.11578 72.5316 8.00814C72.5316 6.88975 72.3013 5.88831 71.8406 5.00448C71.3777 4.11837 70.748 3.42545 69.9509 2.92603C69.1538 2.42662 68.279 2.17675 67.3265 2.17675ZM67.3265 4.21285C67.9388 4.21285 68.4783 4.36824 68.9449 4.67871C69.4114 4.98722 69.7759 5.42897 70.0384 6.00462C70.3008 6.58026 70.4321 7.2481 70.4321 8.00814C70.4321 8.76817 70.3008 9.43406 70.0384 10.0051C69.7759 10.5743 69.4114 11.0108 68.9449 11.3148C68.4783 11.6187 67.9388 11.7709 67.3265 11.7709C66.7141 11.7709 66.1727 11.6187 65.7022 11.3148C65.2298 11.0108 64.8624 10.5743 64.6 10.0051C64.3375 9.43406 64.2063 8.76817 64.2063 8.00814C64.2063 7.2481 64.3375 6.58026 64.6 6.00462C64.8624 5.42897 65.2298 4.98722 65.7022 4.67871C66.1727 4.36824 66.7141 4.21285 67.3265 4.21285Z" fill="#007E23"/>
<path d="M73.5089 7.99186C73.5089 9.11025 73.7464 10.1127 74.2214 10.9988C74.6941 11.8826 75.3411 12.5723 76.1624 13.0675C76.9817 13.5603 77.901 13.807 78.9201 13.807C80.1124 13.807 81.1568 13.4812 82.0537 12.8296C82.9502 12.1781 83.577 11.2767 83.9337 10.1257H81.4728C81.2282 10.6684 80.8848 11.0757 80.4424 11.3474C79.998 11.6187 79.4856 11.7546 78.9047 11.7546C78.2832 11.7546 77.731 11.5992 77.2478 11.2887C76.7628 10.9802 76.3858 10.5437 76.1168 9.97909C75.8457 9.4142 75.7102 8.75189 75.7102 7.99186C75.7102 7.24257 75.8457 6.58223 76.1168 6.01114C76.3858 5.44201 76.7628 5.00221 77.2478 4.69175C77.731 4.38324 78.2832 4.22915 78.9047 4.22915C79.4856 4.22915 79.998 4.36793 80.4424 4.64614C80.8848 4.92175 81.2282 5.33124 81.4728 5.87431H83.9337C83.577 4.71227 82.9535 3.80759 82.0628 3.1606C81.1702 2.51556 80.1225 2.19305 78.9201 2.19305C77.901 2.19305 76.9817 2.44064 76.1624 2.93582C75.3411 3.42871 74.6941 4.11512 74.2214 4.99472C73.7464 5.87431 73.5089 6.87314 73.5089 7.99186Z" fill="#007E23"/>
<path d="M84.9111 7.99186C84.9111 9.11024 85.1486 10.1127 85.6235 10.9988C86.0962 11.8826 86.7432 12.5723 87.5645 13.0675C88.3838 13.5603 89.3032 13.807 90.3222 13.807C91.5146 13.807 92.559 13.4812 93.4559 12.8296C94.3524 12.1781 94.9792 11.2767 95.3359 10.1257H92.875C92.6303 10.6684 92.287 11.0757 91.8446 11.3474C91.4002 11.6187 90.8878 11.7546 90.3069 11.7546C89.6853 11.7546 89.1331 11.5992 88.65 11.2887C88.1649 10.9802 87.788 10.5437 87.5189 9.97909C87.2479 9.4142 87.1123 8.75189 87.1123 7.99186C87.1123 7.24257 87.2479 6.58223 87.5189 6.01114C87.788 5.44201 88.1649 5.00221 88.65 4.69175C89.1331 4.38324 89.6853 4.22915 90.3069 4.22915C90.8878 4.22915 91.4002 4.36793 91.8446 4.64614C92.287 4.92174 92.6303 5.33124 92.875 5.87431H95.3359C94.9792 4.71227 94.3556 3.80759 93.465 3.1606C92.5723 2.51556 91.5247 2.19305 90.3222 2.19305C89.3032 2.19305 88.3838 2.44063 87.5645 2.93581C86.7432 3.42871 86.0962 4.11512 85.6235 4.99472C85.1486 5.87431 84.9111 6.87314 84.9111 7.99186Z" fill="#007E23"/>
<path d="M101.533 2.17675C100.58 2.17675 99.7055 2.42662 98.9084 2.92603C98.1115 3.42545 97.4795 4.11837 97.013 5.00448C96.5465 5.88831 96.3132 6.88975 96.3132 8.00814C96.3132 9.11578 96.5465 10.1127 97.013 10.9988C97.4795 11.8826 98.1115 12.5745 98.9084 13.074C99.7055 13.5734 100.58 13.8232 101.533 13.8232C102.495 13.8232 103.373 13.5734 104.166 13.074C104.957 12.5745 105.584 11.8826 106.047 10.9988C106.508 10.1127 106.738 9.11578 106.738 8.00814C106.738 6.88975 106.508 5.88831 106.047 5.00448C105.584 4.11837 104.954 3.42545 104.157 2.92603C103.36 2.42662 102.485 2.17675 101.533 2.17675ZM101.533 4.21285C102.145 4.21285 102.685 4.36824 103.151 4.67871C103.618 4.98722 103.982 5.42897 104.245 6.00462C104.507 6.58026 104.638 7.2481 104.638 8.00814C104.638 8.76817 104.507 9.43406 104.245 10.0051C103.982 10.5743 103.618 11.0108 103.151 11.3148C102.685 11.6187 102.145 11.7709 101.533 11.7709C100.921 11.7709 100.379 11.6187 99.9088 11.3148C99.4364 11.0108 99.069 10.5743 98.8064 10.0051C98.5441 9.43406 98.4129 8.76817 98.4129 8.00814C98.4129 7.2481 98.5441 6.58026 98.8064 6.00462C99.069 5.42897 99.4364 4.98722 99.9088 4.67871C100.379 4.36824 100.921 4.21285 101.533 4.21285Z" fill="#007E23"/>
<path d="M109.761 11.8157H113.507V13.6237H107.48V2.25415H109.761V11.8157Z" fill="#007E23"/>
<path d="M117 13.6848V2.31521H114.72V13.6848H117Z" fill="#007E23"/>
<path d="M54.9891 17.8232V28.8232H53.2777V21.2895L50.0951 28.8232H48.9091L45.7114 21.2895V28.8232H44V17.8232H45.8466L49.5096 26.4493L53.1576 17.8232H54.9891Z" fill="#FAB522"/>
<path d="M66.0855 26.5792H61.2048L60.3662 28.8232H58.3704L62.5466 17.8232H64.7605L68.9366 28.8232H66.9242L66.0855 26.5792ZM65.5488 25.1093L63.6536 20.0045L61.7416 25.1093H65.5488Z" fill="#FAB522"/>
<path d="M78.1205 28.8232L75.5487 24.4232H74.1505V28.8232H72.3179V17.8232H76.1755C77.0326 17.8232 77.7592 17.9711 78.3551 18.2665C78.9485 18.5619 79.3932 18.9575 79.689 19.4537C79.9828 19.9495 80.1294 20.5036 80.1294 21.1155C80.1294 21.8329 79.9185 22.4848 79.4963 23.0715C79.0719 23.6561 78.4202 24.0541 77.5419 24.2652L80.3061 28.8232H78.1205ZM74.1505 22.9831H76.1755C76.8614 22.9831 77.3788 22.814 77.7283 22.4766C78.0753 22.1389 78.249 21.6851 78.249 21.1155C78.249 20.5455 78.0774 20.0994 77.7347 19.7764C77.3919 19.4557 76.872 19.2952 76.1755 19.2952H74.1505V22.9831Z" fill="#FAB522"/>
<path d="M90.6752 28.8232L85.7673 23.9009V28.8232H83.6874V17.8232H85.7673V22.8405L90.6934 17.8232H93.3025L87.7927 23.3314L93.3938 28.8232H90.6752Z" fill="#FAB522"/>
<path d="M98.8515 19.2932V22.5174H103.224V23.9869H98.8515V27.3533H103.77V28.8232H96.775V17.8232H103.77V19.2932H98.8515Z" fill="#FAB522"/>
<path d="M116 17.8232V19.2952H112.625V28.8232H110.545V19.2952H107.152V17.8232H116Z" fill="#FAB522"/>
</svg>
