<svg width="31" height="27" viewBox="0 0 31 27" fill="none" xmlns="http://www.w3.org/2000/svg">
<path d="M26.4778 26.5L17.3778 17.4C16.6556 17.9778 15.825 18.4352 14.8861 18.7722C13.9472 19.1093 12.9481 19.2778 11.8889 19.2778C9.26481 19.2778 7.04398 18.369 5.22639 16.5514C3.4088 14.7338 2.5 12.513 2.5 9.88889C2.5 7.26481 3.4088 5.04398 5.22639 3.22639C7.04398 1.4088 9.26481 0.5 11.8889 0.5C14.513 0.5 16.7338 1.4088 18.5514 3.22639C20.369 5.04398 21.2778 7.26481 21.2778 9.88889C21.2778 10.9481 21.1093 11.9472 20.7722 12.8861C20.4352 13.825 19.9778 14.6556 19.4 15.3778L28.5 24.4778L26.4778 26.5ZM11.8889 16.3889C13.6944 16.3889 15.2292 15.7569 16.4931 14.4931C17.7569 13.2292 18.3889 11.6944 18.3889 9.88889C18.3889 8.08333 17.7569 6.54861 16.4931 5.28472C15.2292 4.02083 13.6944 3.38889 11.8889 3.38889C10.0833 3.38889 8.54861 4.02083 7.28472 5.28472C6.02083 6.54861 5.38889 8.08333 5.38889 9.88889C5.38889 11.6944 6.02083 13.2292 7.28472 14.4931C8.54861 15.7569 10.0833 16.3889 11.8889 16.3889Z" fill="#2D2C2D"/>
</svg>
